<svg xmlns="http://www.w3.org/2000/svg" xmlns:xlink="http://www.w3.org/1999/xlink" viewBox="0 0 512 512"><defs><style>.cls-1{fill:url(#Best_of_Sunburst);}.cls-2{fill:none;stroke:#4d4d4d;stroke-linecap:round;stroke-miterlimit:10;stroke-width:30px;}</style><linearGradient id="Best_of_Sunburst" x1="18" y1="251" x2="494" y2="251" gradientUnits="userSpaceOnUse"><stop offset="0" stop-color="#fc7422"/><stop offset="1" stop-color="#fee300"/></linearGradient></defs><g id="Chat"><path class="cls-1" d="M256,20C124.56,20,18,113.15,18,228.06,18,287.42,46.44,341,92,378.87L73,482l121.21-53A270.65,270.65,0,0,0,256,436.13c131.44,0,238-93.16,238-208.07S387.44,20,256,20Z"/><path class="cls-2" d="M256,20C124.56,20,18,113.15,18,228.06,18,287.42,46.44,341,92,378.87L73,482l121.21-53A270.65,270.65,0,0,0,256,436.13c131.44,0,238-93.16,238-208.07S387.44,20,256,20Z"/></g></svg>