<svg xmlns="http://www.w3.org/2000/svg" viewBox="0 0 512 512"><defs><style>.cls-1{fill:none;stroke:#4d4d4d;stroke-linecap:round;stroke-miterlimit:10;stroke-width:30px;}</style></defs><g id="Facebook_copy" data-name="Facebook copy"><path class="cls-1" d="M412,22H99.73a80,80,0,0,0-80,80V410.94a80,80,0,0,0,80,80H255.5V328.8H207.36a12.05,12.05,0,0,1-12.05-12.06V262a12,12,0,0,1,12-12H255.5V182a78.91,78.91,0,0,1,78.91-78.91h56.48a12,12,0,0,1,12.05,12V153.5a13.44,13.44,0,0,1-13.44,13.44h-36A24.46,24.46,0,0,0,329,191.4V248h68.06a12,12,0,0,1,11.82,14.27l-10.82,56.91a11.82,11.82,0,0,1-11.61,9.62H329.26V490.94H412a80,80,0,0,0,80-80V102A80,80,0,0,0,412,22Z"/></g></svg>