<svg width="25" height="22" viewBox="0 0 25 22" fill="none" xmlns="http://www.w3.org/2000/svg">
<g clip-path="url(#clip0_582_9)">
<path d="M8 3H5.8C4.11984 3 3.27976 3 2.63803 3.32698C2.07354 3.6146 1.6146 4.07354 1.32698 4.63803C1 5.27976 1 6.11984 1 7.8V16.2C1 17.8802 1 18.7202 1.32698 19.362C1.6146 19.9265 2.07354 20.3854 2.63803 20.673C3.27976 21 4.11984 21 5.8 21H14.2C15.8802 21 16.7202 21 17.362 20.673C17.9265 20.3854 18.3854 19.9265 18.673 19.362C19 18.7202 19 17.8802 19 16.2V14" stroke="white" stroke-width="2" stroke-linecap="round" stroke-linejoin="round"/>
<path d="M9 10.5121C9 8.17213 9.68088 6.30257 11.0233 4.95126C12.6444 3.31982 15.2048 2.43964 18.6412 2.3308V0L25 4.5L18.6412 9V6.5C16.5548 6.54346 14.7547 7.05224 13.5 7.5C12.1444 7.98392 11 9 10.5 9.5C10 10 9 12 9 12V10.5121Z" fill="white"/>
</g>
<defs>
<clipPath id="clip0_582_9">
<rect width="25" height="22" fill="white"/>
</clipPath>
</defs>
</svg>
