<svg xmlns="http://www.w3.org/2000/svg" viewBox="0 0 512 512"><defs><style>.cls-1{fill:none;stroke:#4d4d4d;stroke-linecap:round;stroke-linejoin:round;stroke-width:30px;}</style></defs><g id="Link"><path class="cls-1" d="M419.5,431a239.43,239.43,0,0,0,0-350,238.63,238.63,0,0,1-164,65A238.59,238.59,0,0,1,92,81.48a239.45,239.45,0,0,0,0,349,239.43,239.43,0,0,1,327.5.46Z"/><circle class="cls-1" cx="256" cy="256" r="239.5"/><path class="cls-1" d="M386.35,255.26A262.11,262.11,0,0,0,256.42,28.81a262.3,262.3,0,0,0,0,452.89A262.11,262.11,0,0,0,386.35,255.26Z"/><line class="cls-1" x1="256" y1="17" x2="256" y2="495"/><line class="cls-1" x1="16" y1="256" x2="495" y2="256"/></g></svg>